# xmcd
#
# Track frame offsets: 
#        150
#        15840
#        32490
#        50785
#        67890
#        84827
#        102915
#        106735
#        123790
#        137100
#        154937
#
# Disc length: 2270 seconds
#
# Revision: 1
# Processed by: cddbd v1.4PL0 Copyright (c) Steve Scherf et al.
# Submitted via: ExactAudioCopy v0.90b4
#
DISCID=7b08dc0b
DTITLE=Lisa Brokop - Undeniable
DYEAR=1900
DGENRE=Country
TTITLE0=I'd Like To See You Try
TTITLE1=Timeless
TTITLE2=Keep Mom And Dad In Love (With Hal Ketchum)
TTITLE3=Something Undeniable
TTITLE4=It's Me
TTITLE5=Say
TTITLE6=W and W Foreplay
TTITLE7=Whiskey And Wine
TTITLE8=Don't Believe Me
TTITLE9=Cross My Heart
TTITLE10=Dark Side Of The Moon
EXTD=
EXTT0=
EXTT1=
EXTT2=
EXTT3=
EXTT4=
EXTT5=
EXTT6=
EXTT7=
EXTT8=
EXTT9=
EXTT10=
PLAYORDER=
